<svg width="30" height="31" viewBox="0 0 30 31" fill="none" xmlns="http://www.w3.org/2000/svg">
<path d="M15 0.66748C23.013 0.66748 30 7.28248 30 14.9175C30 22.4235 23.1705 28.3305 15 28.3305C13.2525 28.3314 11.5159 28.055 9.855 27.5115C9.159 28.1865 8.9205 28.416 7.443 29.841C6.378 30.645 5.376 30.918 4.4805 30.411C3.5775 29.901 3.306 28.908 3.4905 27.6L4.0905 24.1215C1.485 21.6705 0 18.4305 0 14.9175C0 7.28248 6.9855 0.66748 15 0.66748ZM15 2.76748C8.121 2.76748 2.1 8.46748 2.1 14.9175C2.1 17.985 3.468 20.8095 5.88 22.9125L5.91 22.938L6.3555 23.325L6.255 23.91L6.048 25.116L5.9925 25.437L5.565 27.924C5.53979 28.0914 5.52476 28.2602 5.52 28.4295V28.572C5.52 28.5795 5.5185 28.5825 5.517 28.584C5.5275 28.569 5.7315 28.5045 6.081 28.2495L9.336 25.0905L9.957 25.3245C11.5701 25.9264 13.2782 26.2338 15 26.232C22.074 26.232 27.9 21.192 27.9 14.9175C27.9 8.46898 21.879 2.76748 15 2.76748ZM7.8405 12.387C8.14269 12.3759 8.444 12.4259 8.72644 12.534C9.00887 12.642 9.26663 12.8058 9.48432 13.0157C9.70201 13.2256 9.87516 13.4772 9.99343 13.7555C10.1117 14.0338 10.1726 14.3331 10.1726 14.6355C10.1726 14.9379 10.1117 15.2372 9.99343 15.5155C9.87516 15.7938 9.70201 16.0454 9.48432 16.2553C9.26663 16.4651 9.00887 16.629 8.72644 16.737C8.444 16.845 8.14269 16.895 7.8405 16.884C7.25837 16.8627 6.70718 16.6165 6.30287 16.1972C5.89856 15.7778 5.67264 15.218 5.67264 14.6355C5.67264 14.053 5.89856 13.4932 6.30287 13.0738C6.70718 12.6545 7.25837 12.4082 7.8405 12.387ZM15.3375 12.387C15.6397 12.3759 15.941 12.4259 16.2234 12.534C16.5059 12.642 16.7636 12.8058 16.9813 13.0157C17.199 13.2256 17.3722 13.4772 17.4904 13.7555C17.6087 14.0338 17.6696 14.3331 17.6696 14.6355C17.6696 14.9379 17.6087 15.2372 17.4904 15.5155C17.3722 15.7938 17.199 16.0454 16.9813 16.2553C16.7636 16.4651 16.5059 16.629 16.2234 16.737C15.941 16.845 15.6397 16.895 15.3375 16.884C14.7554 16.8627 14.2042 16.6165 13.7999 16.1972C13.3956 15.7778 13.1696 15.218 13.1696 14.6355C13.1696 14.053 13.3956 13.4932 13.7999 13.0738C14.2042 12.6545 14.7554 12.4082 15.3375 12.387ZM22.833 12.387C23.1352 12.3759 23.4365 12.4259 23.7189 12.534C24.0014 12.642 24.2591 12.8058 24.4768 13.0157C24.6945 13.2256 24.8677 13.4772 24.9859 13.7555C25.1042 14.0338 25.1651 14.3331 25.1651 14.6355C25.1651 14.9379 25.1042 15.2372 24.9859 15.5155C24.8677 15.7938 24.6945 16.0454 24.4768 16.2553C24.2591 16.4651 24.0014 16.629 23.7189 16.737C23.4365 16.845 23.1352 16.895 22.833 16.884C22.2509 16.8627 21.6997 16.6165 21.2954 16.1972C20.8911 15.7778 20.6651 15.218 20.6651 14.6355C20.6651 14.053 20.8911 13.4932 21.2954 13.0738C21.6997 12.6545 22.2509 12.4082 22.833 12.387Z" fill="black"/>
</svg>
