<svg width="30" height="30" viewBox="0 0 30 30" fill="none" xmlns="http://www.w3.org/2000/svg">
<path fill-rule="evenodd" clip-rule="evenodd" d="M4.15385 0H4.03846C3.51 0 3.05538 1.71923e-08 2.65385 0.0946081C2.03224 0.243131 1.46388 0.560833 1.01176 1.01251C0.559641 1.46419 0.241402 2.03221 0.0923076 2.65364C-8.59682e-08 3.05515 0 3.50742 0 4.03815V9.80694C0 10.3354 1.71936e-08 10.7899 0.0946154 11.1914C0.24315 11.813 0.560876 12.3813 1.01259 12.8334C1.46431 13.2855 2.03237 13.6037 2.65385 13.7528C3.05538 13.8451 3.50769 13.8451 4.03846 13.8451H9.80769C10.3362 13.8451 10.7908 13.8451 11.1923 13.7505C11.8139 13.602 12.3823 13.2843 12.8344 12.8326C13.2865 12.3809 13.6048 11.8129 13.7538 11.1914C13.8462 10.7899 13.8462 10.3377 13.8462 9.80694V4.03815C13.8462 3.50973 13.8462 3.05515 13.7515 2.65364C13.603 2.03208 13.2853 1.46377 12.8336 1.01168C12.3818 0.559598 11.8138 0.241384 11.1923 0.0923005C10.7908 -8.59616e-08 10.3385 0 9.80769 0H4.15385ZM3.19154 2.33982C3.29077 2.31674 3.44538 2.30751 4.15385 2.30751H9.69231C10.4031 2.30751 10.5554 2.31444 10.6546 2.33982C10.8619 2.38939 11.0514 2.4954 11.2021 2.64611C11.3529 2.79681 11.4589 2.98632 11.5085 3.1936C11.5315 3.29052 11.5385 3.44281 11.5385 4.15353V9.69156C11.5385 10.4023 11.5315 10.5546 11.5062 10.6538C11.4566 10.8611 11.3506 11.0506 11.1998 11.2013C11.0491 11.352 10.8596 11.458 10.6523 11.5076C10.5577 11.5283 10.4054 11.5376 9.69231 11.5376H4.15385C3.44308 11.5376 3.29077 11.5307 3.19154 11.5053C2.98424 11.4557 2.79472 11.3497 2.64401 11.199C2.49329 11.0483 2.38726 10.8588 2.33769 10.6515C2.31692 10.5569 2.30769 10.4046 2.30769 9.69156V4.15353C2.30769 3.44281 2.31462 3.29052 2.34 3.19129C2.38957 2.98401 2.4956 2.79451 2.64631 2.6438C2.79703 2.4931 2.98655 2.38708 3.19385 2.33751L3.19154 2.33982ZM20.3077 0H20.1923C19.6638 0 19.2092 1.71923e-08 18.8077 0.0946081C18.1861 0.243131 17.6177 0.560833 17.1656 1.01251C16.7135 1.46419 16.3952 2.03221 16.2462 2.65364C16.1538 3.05515 16.1538 3.50742 16.1538 4.03815V9.80694C16.1538 10.3354 16.1538 10.7899 16.2485 11.1914C16.397 11.813 16.7147 12.3813 17.1664 12.8334C17.6182 13.2855 18.1862 13.6037 18.8077 13.7528C19.2092 13.8451 19.6615 13.8451 20.1923 13.8451H25.9615C26.49 13.8451 26.9446 13.8451 27.3462 13.7505C27.9678 13.602 28.5361 13.2843 28.9882 12.8326C29.4404 12.3809 29.7586 11.8129 29.9077 11.1914C30 10.7899 30 10.3377 30 9.80694V4.03815C30 3.50973 30 3.05515 29.9054 2.65364C29.7568 2.03208 29.4391 1.46377 28.9874 1.01168C28.5357 0.559598 27.9676 0.241384 27.3462 0.0923005C26.9446 -8.59616e-08 26.4923 0 25.9615 0H20.3077ZM19.3454 2.33982C19.4446 2.31674 19.5992 2.30751 20.3077 2.30751H25.8462C26.5569 2.30751 26.7092 2.31444 26.8085 2.33982C27.0158 2.38939 27.2053 2.4954 27.356 2.64611C27.5067 2.79681 27.6127 2.98632 27.6623 3.1936C27.6854 3.29052 27.6923 3.44281 27.6923 4.15353V9.69156C27.6923 10.4023 27.6831 10.5546 27.66 10.6538C27.6104 10.8611 27.5044 11.0506 27.3537 11.2013C27.203 11.352 27.0135 11.458 26.8062 11.5076C26.7092 11.5307 26.5569 11.5376 25.8462 11.5376H20.3077C19.5969 11.5376 19.4446 11.5307 19.3454 11.5053C19.1381 11.4557 18.9486 11.3497 18.7979 11.199C18.6471 11.0483 18.5411 10.8588 18.4915 10.6515C18.4708 10.5569 18.4615 10.4046 18.4615 9.69156V4.15353C18.4615 3.44281 18.4685 3.29052 18.4938 3.19129C18.5434 2.98401 18.6494 2.79451 18.8002 2.6438C18.9509 2.4931 19.1404 2.38708 19.3477 2.33751L19.3454 2.33982ZM4.03846 16.1526H9.80769C10.3362 16.1526 10.7908 16.1526 11.1923 16.2472C11.8139 16.3957 12.3823 16.7134 12.8344 17.1651C13.2865 17.6168 13.6048 18.1848 13.7538 18.8062C13.8462 19.2078 13.8462 19.66 13.8462 20.1908V25.9595C13.8462 26.488 13.8462 26.9425 13.7515 27.344C13.603 27.9656 13.2853 28.5339 12.8336 28.986C12.3818 29.4381 11.8138 29.7563 11.1923 29.9054C10.7908 29.9977 10.3385 29.9977 9.80769 29.9977H4.03846C3.51 29.9977 3.05538 29.9977 2.65385 29.9031C2.03224 29.7546 1.46388 29.4369 1.01176 28.9852C0.559641 28.5335 0.241402 27.9655 0.0923076 27.344C-8.59682e-08 26.9425 0 26.4903 0 25.9595V20.1908C0 19.6623 1.71936e-08 19.2078 0.0946154 18.8062C0.24315 18.1847 0.560876 17.6164 1.01259 17.1643C1.46431 16.7122 2.03237 16.394 2.65385 16.2449C3.05538 16.1526 3.50769 16.1526 4.03846 16.1526ZM4.15385 18.4601C3.44308 18.4601 3.29077 18.467 3.19154 18.4924C2.98424 18.542 2.79472 18.648 2.64401 18.7987C2.49329 18.9494 2.38726 19.1389 2.33769 19.3462C2.31692 19.4408 2.30769 19.5931 2.30769 20.3061V25.8442C2.30769 26.5549 2.31462 26.7072 2.34 26.8064C2.38957 27.0137 2.4956 27.2032 2.64631 27.3539C2.79703 27.5046 2.98655 27.6106 3.19385 27.6602C3.29077 27.6833 3.44308 27.6902 4.15385 27.6902H9.69231C10.4031 27.6902 10.5554 27.6809 10.6546 27.6579C10.8619 27.6083 11.0514 27.5023 11.2021 27.3516C11.3529 27.2009 11.4589 27.0114 11.5085 26.8041C11.5315 26.7072 11.5385 26.5549 11.5385 25.8442V20.3061C11.5385 19.5954 11.5315 19.4431 11.5062 19.3439C11.4566 19.1366 11.3506 18.9471 11.1998 18.7964C11.0491 18.6457 10.8596 18.5397 10.6523 18.4901C10.5577 18.4693 10.4054 18.4601 9.69231 18.4601H4.15385ZM20.3077 16.1526H20.1923C19.6638 16.1526 19.2092 16.1526 18.8077 16.2472C18.1861 16.3957 17.6177 16.7134 17.1656 17.1651C16.7135 17.6168 16.3952 18.1848 16.2462 18.8062C16.1538 19.2078 16.1538 19.66 16.1538 20.1908V25.9595C16.1538 26.488 16.1538 26.9425 16.2485 27.344C16.397 27.9656 16.7147 28.5339 17.1664 28.986C17.6182 29.4381 18.1862 29.7563 18.8077 29.9054C19.2092 30 19.6638 30 20.1923 30H25.9615C26.49 30 26.9446 30 27.3462 29.9054C27.9673 29.7565 28.5352 29.4386 28.9869 28.987C29.4386 28.5353 29.7565 27.9675 29.9054 27.3464C30 26.9448 30 26.4903 30 25.9618V20.1908C30 19.6623 30 19.2078 29.9054 18.8062C29.7568 18.1847 29.4391 17.6164 28.9874 17.1643C28.5357 16.7122 27.9676 16.394 27.3462 16.2449C26.9446 16.1526 26.4923 16.1526 25.9615 16.1526H20.3077ZM19.3454 18.4924C19.4446 18.4693 19.5992 18.4601 20.3077 18.4601H25.8462C26.5569 18.4601 26.7092 18.467 26.8085 18.4924C27.0158 18.542 27.2053 18.648 27.356 18.7987C27.5067 18.9494 27.6127 19.1389 27.6623 19.3462C27.6854 19.4431 27.6923 19.5954 27.6923 20.3061V25.8442C27.6923 26.5549 27.6831 26.7072 27.66 26.8064C27.6104 27.0137 27.5044 27.2032 27.3537 27.3539C27.203 27.5046 27.0135 27.6106 26.8062 27.6602C26.7092 27.6833 26.5569 27.6902 25.8462 27.6902H20.3077C19.5969 27.6902 19.4446 27.6809 19.3454 27.6579C19.1381 27.6083 18.9486 27.5023 18.7979 27.3516C18.6471 27.2009 18.5411 27.0114 18.4915 26.8041C18.4708 26.7095 18.4615 26.5572 18.4615 25.8442V20.3061C18.4615 19.5954 18.4685 19.4431 18.4938 19.3439C18.5434 19.1366 18.6494 18.9471 18.8002 18.7964C18.9509 18.6457 19.1404 18.5397 19.3477 18.4901L19.3454 18.4924Z" fill="black"/>
</svg>
