<svg width="40" height="41" viewBox="0 0 40 41" fill="none" xmlns="http://www.w3.org/2000/svg">
<path d="M16.2529 14.4175C16.2679 11.6987 16.3892 10.2262 17.3492 9.26623C18.4479 8.16748 20.2154 8.16748 23.7504 8.16748H25.0004C28.5367 8.16748 30.3042 8.16748 31.4029 9.26623C32.5004 10.3637 32.5004 12.1325 32.5004 15.6675V25.6675C32.5004 29.2025 32.5004 30.9712 31.4029 32.0687C30.3029 33.1675 28.5367 33.1675 25.0004 33.1675H23.7504C20.2154 33.1675 18.4479 33.1675 17.3492 32.0687C16.3892 31.1087 16.2679 29.6362 16.2529 26.9175" stroke="black" stroke-width="1.875" stroke-linecap="round"/>
<path d="M23.75 20.6675H7.5M7.5 20.6675L11.875 16.9175M7.5 20.6675L11.875 24.4175" stroke="black" stroke-width="1.875" stroke-linecap="round" stroke-linejoin="round"/>
</svg>
