<svg width="24" height="27" viewBox="0 0 24 27" fill="none" xmlns="http://www.w3.org/2000/svg">
<path d="M20.75 18.9175V12.4175C20.125 12.5425 19.5 12.6675 18.875 12.6675H18.25V20.1675H5.75V11.4175C5.75 7.91748 8.5 5.16748 12 5.16748C12.125 3.54248 12.875 2.16748 13.875 1.04248C13.5 0.542481 12.75 0.16748 12 0.16748C10.625 0.16748 9.5 1.29248 9.5 2.66748V3.04248C5.75 4.16748 3.25 7.54248 3.25 11.4175V18.9175L0.75 21.4175V22.6675H23.25V21.4175L20.75 18.9175ZM9.5 23.9175C9.5 25.2925 10.625 26.4175 12 26.4175C13.375 26.4175 14.5 25.2925 14.5 23.9175H9.5ZM23.25 5.79248C23.25 8.16748 21.25 10.1675 18.875 10.1675C16.5 10.1675 14.5 8.16748 14.5 5.79248C14.5 3.41748 16.5 1.41748 18.875 1.41748C21.25 1.41748 23.25 3.41748 23.25 5.79248Z" fill="black"/>
</svg>
