<svg width="40" height="41" viewBox="0 0 40 41" fill="none" xmlns="http://www.w3.org/2000/svg">
<path d="M31.6663 5.33413H26.1697C26.006 5.0877 25.8279 4.85118 25.6363 4.6258L25.6197 4.6058C24.3951 3.17955 22.6723 2.2746 20.803 2.0758C20.2722 1.97473 19.7271 1.97473 19.1963 2.0758C17.3271 2.2746 15.6042 3.17955 14.3797 4.6058L14.363 4.6258C14.1715 4.85064 13.9934 5.0866 13.8297 5.33246L8.33301 5.33413C7.00733 5.33545 5.73633 5.86266 4.79894 6.80006C3.86154 7.73745 3.33433 9.00845 3.33301 10.3341V33.6675C3.33433 34.9931 3.86154 36.2641 4.79894 37.2015C5.73633 38.1389 7.00733 38.6661 8.33301 38.6675H31.6663C32.992 38.6661 34.263 38.1389 35.2004 37.2015C36.1378 36.2641 36.665 34.9931 36.6663 33.6675V10.3341C36.665 9.00845 36.1378 7.73745 35.2004 6.80006C34.263 5.86266 32.992 5.33545 31.6663 5.33413ZM33.333 33.6675C33.333 34.1095 33.1574 34.5334 32.8449 34.846C32.5323 35.1585 32.1084 35.3341 31.6663 35.3341H8.33301C7.89112 35.3337 7.46745 35.1579 7.15498 34.8455C6.84252 34.533 6.66678 34.1094 6.66634 33.6675V10.3341C6.66678 9.89224 6.84252 9.46857 7.15498 9.15611C7.46745 8.84364 7.89112 8.6679 8.33301 8.66746H15.9163C16.1076 7.72556 16.6186 6.87873 17.3628 6.27048C18.107 5.66223 19.0385 5.32995 19.9997 5.32995C20.9608 5.32995 21.8924 5.66223 22.6366 6.27048C23.3807 6.87873 23.8917 7.72556 24.083 8.66746H31.6663C32.1082 8.6679 32.5319 8.84364 32.8444 9.15611C33.1568 9.46857 33.3326 9.89224 33.333 10.3341V33.6675Z" fill="black"/>
<path d="M19.9992 11.8614C20.9044 11.8614 21.6381 11.1027 21.6381 10.1669C21.6381 9.23106 20.9044 8.47241 19.9992 8.47241C19.0941 8.47241 18.3604 9.23106 18.3604 10.1669C18.3604 11.1027 19.0941 11.8614 19.9992 11.8614Z" fill="black"/>
<path d="M10.166 28.8062H29.8327V32.1952H10.166V28.8062ZM16.7216 20.0458L21.2973 24.7801L27.7415 18.1124L29.8327 20.3338V13.5559H23.2771L25.4241 15.7164L21.2957 19.9848L16.7216 15.2504L10.166 22.0283L12.4834 24.4243L16.7216 20.0458Z" fill="black"/>
</svg>
