<svg width="38" height="41" viewBox="0 0 38 41" fill="none" xmlns="http://www.w3.org/2000/svg">
<path d="M14.9336 29.2028C15.7799 29.6324 16.5482 30.1598 17.2383 30.7848C17.9284 31.4098 18.5143 32.1129 18.9961 32.8942C19.4779 33.6754 19.849 34.5087 20.1094 35.3942C20.3698 36.2796 20.5 37.2041 20.5 38.1676H18C18 37.139 17.8047 36.1689 17.4141 35.2574C17.0234 34.346 16.4896 33.5517 15.8125 32.8746C15.1354 32.1975 14.3346 31.6572 13.4102 31.2535C12.4857 30.8499 11.5156 30.6546 10.5 30.6676C9.45833 30.6676 8.48828 30.8629 7.58984 31.2535C6.69141 31.6442 5.89714 32.178 5.20703 32.8551C4.51693 33.5322 3.97656 34.333 3.58594 35.2574C3.19531 36.1819 3 37.152 3 38.1676H0.5C0.5 37.2171 0.630208 36.2991 0.890625 35.4137C1.15104 34.5283 1.52214 33.6884 2.00391 32.8942C2.48568 32.0999 3.07161 31.3968 3.76172 30.7848C4.45182 30.1728 5.22005 29.6455 6.06641 29.2028C5.10286 28.4996 4.35417 27.6207 3.82031 26.566C3.28646 25.5114 3.01302 24.3785 3 23.1676C3 22.139 3.19531 21.1689 3.58594 20.2574C3.97656 19.346 4.51042 18.5517 5.1875 17.8746C5.86458 17.1975 6.65885 16.6572 7.57031 16.2535C8.48177 15.8499 9.45833 15.6546 10.5 15.6676C11.6979 15.6676 12.8242 15.9345 13.8789 16.4684C14.9336 17.0022 15.819 17.7574 16.5352 18.734C17.0299 17.7574 17.6615 16.885 18.4297 16.1168C19.1979 15.3486 20.0768 14.7171 21.0664 14.2223C20.1029 13.5061 19.3542 12.6207 18.8203 11.566C18.2865 10.5114 18.013 9.37854 18 8.1676C18 7.13896 18.1953 6.1689 18.5859 5.25745C18.9766 4.34599 19.5104 3.55172 20.1875 2.87463C20.8646 2.19755 21.6589 1.65719 22.5703 1.25354C23.4818 0.849894 24.4583 0.654582 25.5 0.667603C26.5286 0.667603 27.4987 0.862915 28.4102 1.25354C29.3216 1.64417 30.1159 2.17802 30.793 2.8551C31.4701 3.53219 32.0104 4.33297 32.4141 5.25745C32.8177 6.18193 33.013 7.15198 33 8.1676C33 9.39156 32.7201 10.5439 32.1602 11.6246C31.6003 12.7054 30.819 13.5973 29.8164 14.3004C30.4284 14.6259 31.0143 15.0101 31.5742 15.4528C32.1341 15.8955 32.6419 16.3968 33.0977 16.9567C33.5534 17.5166 33.9635 18.1025 34.3281 18.7145C34.6927 19.3265 34.9727 19.9775 35.168 20.6676H32.5508C32.2643 19.9905 31.8802 19.3525 31.3984 18.7535C30.9167 18.1546 30.3633 17.6207 29.7383 17.152C29.1133 16.6832 28.4427 16.3252 27.7266 16.0778C27.0104 15.8304 26.2682 15.7002 25.5 15.6871C24.4583 15.6871 23.4883 15.8824 22.5898 16.2731C21.6914 16.6637 20.8971 17.1975 20.207 17.8746C19.5169 18.5517 18.9766 19.346 18.5859 20.2574C18.1953 21.1689 18 22.139 18 23.1676C18 24.3655 17.7331 25.4918 17.1992 26.5465C16.6654 27.6012 15.9102 28.4866 14.9336 29.2028ZM25.5 3.1676C24.8099 3.1676 24.1654 3.29781 23.5664 3.55823C22.9674 3.81864 22.4336 4.17672 21.9648 4.63245C21.4961 5.08818 21.138 5.61552 20.8906 6.21448C20.6432 6.81344 20.513 7.46448 20.5 8.1676C20.5 8.85771 20.6302 9.50224 20.8906 10.1012C21.151 10.7002 21.5091 11.234 21.9648 11.7028C22.4206 12.1715 22.9479 12.5296 23.5469 12.777C24.1458 13.0244 24.7969 13.1546 25.5 13.1676C26.1901 13.1676 26.8346 13.0374 27.4336 12.777C28.0326 12.5166 28.5664 12.1585 29.0352 11.7028C29.5039 11.247 29.862 10.7197 30.1094 10.1207C30.3568 9.52177 30.487 8.87073 30.5 8.1676C30.5 7.4775 30.3698 6.83297 30.1094 6.23401C29.849 5.63505 29.4909 5.1012 29.0352 4.63245C28.5794 4.1637 28.0521 3.80562 27.4531 3.55823C26.8542 3.31083 26.2031 3.18062 25.5 3.1676ZM5.5 23.1676C5.5 23.8577 5.63021 24.5022 5.89062 25.1012C6.15104 25.7002 6.50911 26.234 6.96484 26.7028C7.42057 27.1715 7.94792 27.5296 8.54688 27.777C9.14583 28.0244 9.79688 28.1546 10.5 28.1676C11.1901 28.1676 11.8346 28.0374 12.4336 27.777C13.0326 27.5166 13.5664 27.1585 14.0352 26.7028C14.5039 26.247 14.862 25.7197 15.1094 25.1207C15.3568 24.5218 15.487 23.8707 15.5 23.1676C15.5 22.4775 15.3698 21.833 15.1094 21.234C14.849 20.635 14.4909 20.1012 14.0352 19.6324C13.5794 19.1637 13.0521 18.8056 12.4531 18.5582C11.8542 18.3108 11.2031 18.1806 10.5 18.1676C9.8099 18.1676 9.16536 18.2978 8.56641 18.5582C7.96745 18.8186 7.43359 19.1767 6.96484 19.6324C6.49609 20.0882 6.13802 20.6155 5.89062 21.2145C5.64323 21.8134 5.51302 22.4645 5.5 23.1676ZM38 30.6676V40.6676H25.5V30.6676H26.75V28.1676C26.75 27.4775 26.8802 26.833 27.1406 26.234C27.401 25.635 27.7591 25.1012 28.2148 24.6324C28.6706 24.1637 29.1979 23.8056 29.7969 23.5582C30.3958 23.3108 31.0469 23.1806 31.75 23.1676C32.4401 23.1676 33.0846 23.2978 33.6836 23.5582C34.2826 23.8186 34.8164 24.1767 35.2852 24.6324C35.7539 25.0882 36.112 25.6155 36.3594 26.2145C36.6068 26.8134 36.737 27.4645 36.75 28.1676V30.6676H38ZM29.25 30.6676H34.25V28.1676C34.25 27.816 34.1849 27.4905 34.0547 27.191C33.9245 26.8916 33.7487 26.6311 33.5273 26.4098C33.306 26.1884 33.0391 26.0061 32.7266 25.8629C32.4141 25.7197 32.0885 25.6546 31.75 25.6676C31.3984 25.6676 31.0729 25.7327 30.7734 25.8629C30.474 25.9931 30.2135 26.1689 29.9922 26.3903C29.7708 26.6116 29.5885 26.8785 29.4453 27.191C29.3021 27.5035 29.237 27.8291 29.25 28.1676V30.6676ZM35.5 33.1676H28V38.1676H35.5V33.1676Z" fill="black"/>
</svg>
