<svg width="266" height="76" viewBox="0 0 266 76" fill="none" xmlns="http://www.w3.org/2000/svg">
<path d="M141.868 75C146.359 75 150.046 71.3483 149.56 66.8836C147.72 49.9773 140.172 34.1058 128.033 21.967C113.968 7.90177 94.8912 1.50175e-06 75 0C55.1088 -1.50175e-06 36.0322 7.90176 21.967 21.967C9.82816 34.1058 2.28009 49.9773 0.440208 66.8836C-0.045669 71.3483 3.64068 75 8.13168 75C12.6227 75 16.2054 71.3418 16.8252 66.8938C18.5783 54.3108 24.3803 42.5535 33.4669 33.4669C44.4822 22.4517 59.4221 16.2634 75 16.2634C90.5779 16.2634 105.518 22.4517 116.533 33.4669C125.62 42.5535 131.422 54.3108 133.175 66.8938C133.795 71.3418 137.377 75 141.868 75Z" fill="#3F444A"/>
<path d="M107.575 9.5572C108.323 8.71248 109.628 8.67259 110.427 9.47003C111.038 10.0805 111.178 11.0193 110.77 11.7812L79.4055 70.4348C76.5752 75.7276 69.6879 77.2433 64.8971 73.6278C60.3468 70.1938 59.6885 63.6104 63.4687 59.3434L107.575 9.5572Z" fill="#936EFF"/>
<path d="M160.44 75L163.704 58.2H166.5L170.4 68.484L174.312 58.2H177.108L180.372 75H176.988L175.128 65.364L171.54 74.832H169.26L165.684 65.364L163.812 75H160.44ZM190.893 63H194.205V75H190.881L190.725 73.752C190.413 74.216 190.013 74.592 189.525 74.88C189.037 75.168 188.465 75.312 187.809 75.312C186.913 75.312 186.077 75.144 185.301 74.808C184.525 74.472 183.841 74.008 183.249 73.416C182.657 72.824 182.193 72.14 181.857 71.364C181.529 70.58 181.365 69.74 181.365 68.844C181.365 67.988 181.521 67.188 181.833 66.444C182.145 65.7 182.585 65.044 183.153 64.476C183.721 63.908 184.373 63.464 185.109 63.144C185.853 62.824 186.653 62.664 187.509 62.664C188.245 62.664 188.905 62.82 189.489 63.132C190.081 63.444 190.597 63.84 191.037 64.32L190.893 63ZM187.725 72.132C188.269 72.132 188.761 71.992 189.201 71.712C189.641 71.432 189.989 71.056 190.245 70.584C190.501 70.104 190.629 69.576 190.629 69C190.629 68.416 190.501 67.888 190.245 67.416C189.989 66.944 189.641 66.568 189.201 66.288C188.761 66.008 188.269 65.868 187.725 65.868C187.173 65.868 186.673 66.008 186.225 66.288C185.777 66.568 185.421 66.948 185.157 67.428C184.893 67.9 184.761 68.424 184.761 69C184.761 69.576 184.893 70.104 185.157 70.584C185.429 71.056 185.789 71.432 186.237 71.712C186.685 71.992 187.181 72.132 187.725 72.132ZM203.345 66.312H201.185V75H197.873V66.312H196.217V63H197.873V59.232H201.185V63H203.345V66.312Z" fill="#936EFF"/>
<path d="M212.24 66.312H210.08V75H206.768V66.312H205.112V63H206.768V59.232H210.08V63H212.24V66.312ZM225.755 67.368V75H222.443V68.28C222.443 67.856 222.339 67.476 222.131 67.14C221.931 66.796 221.659 66.524 221.315 66.324C220.979 66.124 220.603 66.024 220.187 66.024C219.771 66.024 219.391 66.124 219.047 66.324C218.703 66.524 218.431 66.796 218.231 67.14C218.031 67.476 217.931 67.856 217.931 68.28V75H214.619L214.607 57H217.919L217.931 63.888C218.331 63.504 218.799 63.204 219.335 62.988C219.879 62.772 220.451 62.664 221.051 62.664C221.923 62.664 222.711 62.876 223.415 63.3C224.127 63.724 224.695 64.292 225.119 65.004C225.543 65.708 225.755 66.496 225.755 67.368ZM233.4 75.312C232.296 75.312 231.288 75.028 230.376 74.46C229.472 73.892 228.748 73.128 228.204 72.168C227.668 71.208 227.4 70.148 227.4 68.988C227.4 68.116 227.556 67.3 227.868 66.54C228.18 65.772 228.608 65.1 229.152 64.524C229.704 63.94 230.344 63.484 231.072 63.156C231.8 62.828 232.576 62.664 233.4 62.664C234.352 62.664 235.22 62.868 236.004 63.276C236.796 63.684 237.464 64.24 238.008 64.944C238.56 65.648 238.952 66.444 239.184 67.332C239.424 68.22 239.464 69.144 239.304 70.104H230.976C231.08 70.456 231.24 70.776 231.456 71.064C231.68 71.344 231.952 71.568 232.272 71.736C232.6 71.904 232.976 71.992 233.4 72C233.816 72.008 234.2 71.912 234.552 71.712C234.904 71.512 235.204 71.244 235.452 70.908L238.836 71.688C238.348 72.752 237.62 73.624 236.652 74.304C235.684 74.976 234.6 75.312 233.4 75.312ZM230.856 67.656H235.956C235.852 67.256 235.676 66.896 235.428 66.576C235.18 66.256 234.88 66.004 234.528 65.82C234.184 65.636 233.808 65.544 233.4 65.544C233 65.544 232.624 65.636 232.272 65.82C231.928 66.004 231.632 66.256 231.384 66.576C231.144 66.888 230.968 67.248 230.856 67.656ZM247.387 75H244.123L240.115 63H243.355L245.767 70.188L248.155 63H251.395L253.783 70.188L256.183 63H259.435L255.415 75H252.163L249.775 67.8L247.387 75Z" fill="#494F56"/>
</svg>
