<svg width="30" height="31" viewBox="0 0 30 31" fill="none" xmlns="http://www.w3.org/2000/svg">
<path d="M11.2529 9.41748C11.2679 6.69873 11.3892 5.22623 12.3492 4.26623C13.4479 3.16748 15.2154 3.16748 18.7504 3.16748H20.0004C23.5367 3.16748 25.3042 3.16748 26.4029 4.26623C27.5004 5.36373 27.5004 7.13248 27.5004 10.6675V20.6675C27.5004 24.2025 27.5004 25.9712 26.4029 27.0687C25.3029 28.1675 23.5367 28.1675 20.0004 28.1675H18.7504C15.2154 28.1675 13.4479 28.1675 12.3492 27.0687C11.3892 26.1087 11.2679 24.6362 11.2529 21.9175" stroke="black" stroke-width="1.875" stroke-linecap="round"/>
<path d="M18.75 15.6675H2.5M2.5 15.6675L6.875 11.9175M2.5 15.6675L6.875 19.4175" stroke="black" stroke-width="1.875" stroke-linecap="round" stroke-linejoin="round"/>
</svg>
